<svg width="1399" height="974" fill="none" xmlns="http://www.w3.org/2000/svg"><path fill-rule="evenodd" clip-rule="evenodd" d="M1298.598 564.774c-12.012 94.02 51.312 202.6-6.268 280.4-60.013 81.09-182.851 97.669-286.279 114.888-81.779 13.615-161.56-33.732-244.246-26.564-67.187 5.824-170.808 40.426-238.264 39.996-70.402-.448-136.95-26.758-205.576-41.4-117.091-24.982-226.282 43.001-291.91-51.421-61.408-88.348 55.966-203.158 111.576-295.076 40.61-67.122 155.049-89.786 167.421-166.07 19.488-120.146-141.096-242.16-83.541-351.07 45.8-86.666 196.057-58.388 298.906-56.459 90.739 1.703 176.555 31.653 259.107 66.927 72.061 30.792 116.451 104.794 192.352 125.982 129.218 36.07 309.896-57.683 397.343 38.637 76.351 84.102-56.575 211.314-70.621 321.23z" fill="#e7f0ff"/></svg>