<svg width="182" height="182" fill="none" xmlns="http://www.w3.org/2000/svg"><g filter="url(#filter0_d_76_2407)"><circle cx="91" cy="86" r="75" fill="#fff"/></g><path d="M93.13 136.284c25.654 0 46.45-12.21 46.45-27.273 0-15.062-20.796-27.272-46.45-27.272-25.652 0-46.448 12.21-46.448 27.272 0 15.063 20.796 27.273 46.449 27.273z" fill="#F1F7FF"/><path d="M74.692 111.696l-4.488 7.795a2.146 2.146 0 002.35 3.197 2.148 2.148 0 001.323-.973l4.516-7.842c.434-.748-.034-1.836-1.049-2.424-1.015-.588-2.217-.481-2.652.247zm35.721-13.726l7.795 4.489a2.126 2.126 0 002.806-3.095 2.127 2.127 0 00-.629-.552l-7.841-4.482c-.748-.434-1.837.034-2.425 1.049-.588 1.015-.454 2.157.294 2.591z" fill="#435E6C"/><path d="M119.049 62.83h-.04L100.02 51.87h-.053c-4.168-2.37-9.912-2.004-16.25 1.643-12.738 7.347-23.064 25.241-23.064 39.949 0 7.347 2.571 12.483 6.719 14.901h.033l18.99 10.968h.046c4.168 2.384 9.919 2.003 16.264-1.637 12.731-7.347 23.057-25.24 23.057-39.942 0-7.347-2.565-12.503-6.713-14.921z" fill="#3A80EF"/><path opacity=".1" d="M86.087 119.11l-18.702-10.78h-.04c-4.148-2.425-6.712-7.581-6.712-14.901 0-6.56 2.057-13.746 5.457-20.346l18.989 10.961c-3.407 6.6-5.457 13.786-5.457 20.345.013 7.147 2.471 12.236 6.465 14.721z" fill="#1D4153"/><path opacity=".4" d="M119.011 100.46c9.006-15.6 9.007-32.46.001-37.66-9.006-5.199-23.607 3.232-32.614 18.831-9.006 15.6-9.006 32.46 0 37.66 9.005 5.199 23.607-3.232 32.613-18.831z" fill="#fff"/><path d="M92.4 116.151c-7.295 0-8.083-8.242-8.083-11.789 0-12.97 9.491-29.388 20.706-35.894 2.859-1.65 5.61-2.518 7.961-2.518 7.294 0 8.082 8.242 8.082 11.789 0 12.97-9.491 29.388-20.705 35.894-2.866 1.65-5.618 2.518-7.962 2.518z" fill="#F8FAF9"/><path d="M97.589 106.079a.32.32 0 01-.107 0 .34.34 0 01-.207-.428l5.11-14.594a.335.335 0 01.619-.036c.039.08.044.172.015.257l-5.096 14.574a.33.33 0 01-.334.227z" fill="#3A80EF"/><path d="M110.36 95.459a.924.924 0 01-.394-.08l-8.263-3.574V76.817a1.002 1.002 0 012.004 0V90.49l7.053 3.052a1 1 0 01-.4 1.917z" fill="#1D4153"/><path d="M102.705 87.918c1.496-.868 2.712-.167 2.712 1.563a6.015 6.015 0 01-2.712 4.675c-1.503.869-2.718.167-2.718-1.57a6.011 6.011 0 012.718-4.668z" fill="#3A80EF"/><path d="M80.637 77.165c-3.273 5.657-9.438 8.222-14.073 5.543a11.843 11.843 0 0111.855-20.505c4.622 2.739 5.477 9.297 2.218 14.962z" fill="#435E6C"/><path d="M66.564 82.708c4.635 2.672 10.8.114 14.073-5.544a15.054 15.054 0 001.61-4.06c-.187.247-5.638 7.193-12.41 5.236-6.893-2.004-8.19-7.3-7.595-11.816a11.842 11.842 0 004.322 16.184z" fill="#1D4153"/><path d="M64.66 65.376l-3.513-2.004a2.124 2.124 0 10-2.178 3.647l3.554 2.057c.755.434 1.843-.033 2.431-1.049.588-1.015.454-2.217-.294-2.651zm52.406-16.946l2.003-3.506a2.109 2.109 0 00.258-1.621 2.117 2.117 0 00-.975-1.32 2.125 2.125 0 00-2.93.763l-2.057 3.554c-.434.748 0 1.837 1.049 2.424 1.049.588 2.211.461 2.652-.294z" fill="#3A80EF"/><path d="M100.094 49.88a11.84 11.84 0 017.199-5.525 11.86 11.86 0 0112.476 4.234 11.857 11.857 0 01.863 13.147L100.094 49.88z" fill="#435E6C"/><path d="M118.027 46.8c.668 1.397 2.485 7.308 0 8.777-2.484 1.47-13.959-3.406-13.959-3.406l16.564 9.564a11.846 11.846 0 00-2.605-14.934z" fill="#1D4153"/><defs><filter id="filter0_d_76_2407" x="0" y="0" width="182" height="182" filterUnits="userSpaceOnUse" color-interpolation-filters="sRGB"><feFlood flood-opacity="0" result="BackgroundImageFix"/><feColorMatrix in="SourceAlpha" values="0 0 0 0 0 0 0 0 0 0 0 0 0 0 0 0 0 0 127 0" result="hardAlpha"/><feOffset dy="5"/><feGaussianBlur stdDeviation="8"/><feComposite in2="hardAlpha" operator="out"/><feColorMatrix values="0 0 0 0 0.113725 0 0 0 0 0.254902 0 0 0 0 0.32549 0 0 0 0.1 0"/><feBlend in2="BackgroundImageFix" result="effect1_dropShadow_76_2407"/><feBlend in="SourceGraphic" in2="effect1_dropShadow_76_2407" result="shape"/></filter></defs></svg>