<svg width="182" height="182" fill="none" xmlns="http://www.w3.org/2000/svg"><g filter="url(#filter0_d_76_2557)"><circle cx="91" cy="86" r="75" fill="#fff"/></g><path d="M58.832 126.323c18.472 12.145 48.422 12.145 66.894 0 18.472-12.146 18.472-31.848 0-43.997-18.472-12.148-48.422-12.145-66.894 0-18.472 12.146-18.474 31.848 0 43.997z" fill="#F1F7FF"/><path d="M68.26 125.647l-1.39-.747c-.23-.141-.42-.33-.558-.552a1.564 1.564 0 01-.231-.728V64.495c.014-.256.093-.505.23-.728.138-.222.33-.411.56-.552l45.932-24.761a1.85 1.85 0 011.582 0l1.386.747c.231.14.423.329.561.551.138.223.217.472.232.73v59.127a1.555 1.555 0 01-.232.729 1.69 1.69 0 01-.561.551l-45.929 24.758a1.854 1.854 0 01-1.583 0z" fill="#3A80EF"/><path opacity=".4" d="M116.552 40.357c-.055-.382-.388-.522-.782-.307L69.837 64.812a1.594 1.594 0 00-.559.553l-2.968-1.601a1.56 1.56 0 01.56-.553l45.928-24.762a1.85 1.85 0 011.583 0l1.389.748c.211.13.39.3.525.5s.223.426.257.66z" fill="#fff"/><path opacity=".1" d="M69.654 125.721a1.868 1.868 0 01-1.4-.075l-1.385-.747a1.69 1.69 0 01-.56-.551 1.559 1.559 0 01-.233-.729V64.491c.01-.257.091-.507.234-.727l2.968 1.6c-.142.22-.22.471-.23.728v59.128c0 .409.26.6.606.501z" fill="#000"/><path d="M120.149 84.135a.367.367 0 00-.366.037l-1.864 1.235a.533.533 0 01-.731-.168 4.272 4.272 0 00-.366-.442.913.913 0 01-.215-.877l2.924-1.865-2.193-1.264a.615.615 0 00-.143-.059l-1.396-.31a.76.76 0 00-.79.365l-1.308 2.497a1.36 1.36 0 01-.793.595l-.081.026c.056-.19.096-.384.117-.581l-2.193-1.272a.367.367 0 00-.431.066l-2.088 1.64a1.183 1.183 0 00-.398.885l.124 1.989c0 .347-.114.685-.325.961-.34.41-.665.837-.969 1.283a1.104 1.104 0 01-.848.431l-1.345-.065a.87.87 0 00-.771.471l-1.261 2.83a.534.534 0 00.216.68l1.487.858a.655.655 0 01.033.384c-.101.447-.177.898-.23 1.352a1.728 1.728 0 01-.453.918l-1.85 1.7a1.126 1.126 0 00-.311.91l.348 2.018a.361.361 0 00.168.274l2.193 1.272.029-2.526a.53.53 0 01.731.168c.111.156.233.304.366.442a.919.919 0 01.219.878l-.914 2.544a.461.461 0 00.183.566l2.193 1.272.6-1.644.851-2.113c.179-.291.461-.504.79-.596.292-.077.579-.172.859-.285a.47.47 0 01.399-.001.472.472 0 01.259.304l.471 1.561a.42.42 0 00.179.245l2.212 1.272-.388-2.442.677-.533a1.163 1.163 0 00.394-.885l-.124-1.989c0-.347.114-.685.325-.96.344-.41.859-.63 1.163-1.072.172-.252.365-.658.658-.643l1.341.066a.863.863 0 00.772-.472l1.264-2.833a.528.528 0 00.009-.415.53.53 0 00-.29-.297l-1.097-.465a.67.67 0 01-.365-.73c.102-.447.18-.899.234-1.353.051-.345.208-.666.449-.918l1.853-1.7c.168-.171.275-.394.304-.632l1.681-1.308-2.178-1.28zm-8.407 13.053c-2.267 1.777-4.431 1.294-4.84-1.096-.409-2.39 1.44-5.4 3.703-7.18 2.262-1.78 4.083-1.644 4.492.732.41 2.376-1.086 5.764-3.348 7.544h-.007z" fill="#1D4153"/><path d="M103.484 96.739l-1.827 1.681a1.05 1.05 0 00-.282.526l2.716 1.572v-.146a.53.53 0 01.731.168l2.621-1.513-3.959-2.288zm4.664-5.096c.208-.32.433-.63.673-.928l-2.61-1.506a.97.97 0 01-.365.08l-1.346-.066a.829.829 0 00-.555.201l4.021 2.318.182-.099zm14.194-6.236a.368.368 0 00-.366.044l-1.849 1.217a.538.538 0 01-.731-.168 3.566 3.566 0 00-.366-.442.92.92 0 01-.216-.881l.176-.472.793-.522a.364.364 0 01.384-.037l2.175 1.261zm-5.465-.548c-.022-.022-.04-.051-.062-.077a.913.913 0 01-.216-.877l2.925-1.864-2.194-1.265a.594.594 0 00-.142-.058l-1.396-.311a.763.763 0 00-.79.365l-1.309 2.497a1.124 1.124 0 01-.299.336l2.96 1.71.523-.456zm-8.973-.57l2.715 1.568 2.237-2.047c.042-.165.073-.332.092-.5l-2.193-1.273a.367.367 0 00-.435.08l-2.088 1.642a1.1 1.1 0 00-.328.53z" fill="#435E6C"/><path d="M122.865 87.703l-.348-2.018a.329.329 0 00-.199-.296.33.33 0 00-.353.055l-1.849 1.217a.534.534 0 01-.731-.168 3.51 3.51 0 00-.366-.439.923.923 0 01-.219-.88l.943-2.56a.466.466 0 00-.344-.636l-1.392-.31a.757.757 0 00-.79.365l-1.312 2.497a1.354 1.354 0 01-.79.596 7.167 7.167 0 00-.859.285.467.467 0 01-.4.002.484.484 0 01-.258-.305l-.471-1.561a.37.37 0 00-.244-.258.37.37 0 00-.348.071l-2.087 1.641a1.155 1.155 0 00-.395.885l.124 1.989c0 .347-.115.685-.325.96-.344.41-.666.838-.973 1.284a1.067 1.067 0 01-.848.431l-1.341-.066a.864.864 0 00-.757.48l-1.283 2.85a.535.535 0 00.282.731l1.096.465a.672.672 0 01.366.73c-.102.447-.18.898-.234 1.353a1.676 1.676 0 01-.45.918l-1.853 1.7a1.116 1.116 0 00-.258.419c-.053.158-.072.325-.053.491l.366 2.021a.327.327 0 00.201.293.329.329 0 00.351-.056l1.849-1.217a.535.535 0 01.731.168c.112.156.235.304.366.443a.907.907 0 01.216.881l-.943 2.558a.451.451 0 00-.034.202.46.46 0 00.19.352.456.456 0 00.187.082l1.397.311a.756.756 0 00.789-.365l1.309-2.497c.18-.291.463-.503.793-.596.292-.075.579-.17.859-.285a.47.47 0 01.399-.001.472.472 0 01.259.304l.471 1.561a.362.362 0 00.425.265.372.372 0 00.164-.078l2.087-1.642a1.163 1.163 0 00.398-.884l-.124-1.989a1.569 1.569 0 01.325-.961c.34-.41.666-.837.969-1.283a1.098 1.098 0 01.848-.431l1.345.066a.87.87 0 00.772-.472l1.261-2.83a.552.552 0 00.017-.426.523.523 0 00-.299-.304l-1.096-.465a.669.669 0 01-.366-.73c.101-.447.178-.898.23-1.353.054-.344.212-.663.454-.914l1.849-1.703a1.121 1.121 0 00.304-.943zm-8.919 10.754c-2.263 1.78-4.431 1.294-4.84-1.097-.409-2.39 1.097-5.75 3.356-7.53 2.259-1.78 4.43-1.294 4.839 1.097.41 2.39-1.093 5.75-3.355 7.53zm-4.248-33.859l-2.164-1.247a.364.364 0 00-.336 0l-3.911 1.762a.467.467 0 01-.654-.303 8.816 8.816 0 00-.87-1.938 1.095 1.095 0 01-.059-.946l2.606-5.257a.595.595 0 00-.234-.767l-2.825-1.63a.59.59 0 00-.779.179l-3.253 4.894a1.097 1.097 0 01-.852.424 7.945 7.945 0 00-1.133.051v-3.57l-2.171-1.254a.365.365 0 00-.365.033l-4.387 2.537a1.195 1.195 0 00-.526.822l-.439 4.888a1.62 1.62 0 01-.457.913c-.87.806-1.686 1.67-2.441 2.585a.85.85 0 01-.863.245l-2.822-.987a.687.687 0 00-.79.296l-3.23 5.592a.691.691 0 00.142.834l2.262 1.952a.837.837 0 01.22.87 25.956 25.956 0 00-1.017 3.403c-.09.337-.287.636-.563.851l-4.02 2.826a1.187 1.187 0 00-.45.866v5.074a.366.366 0 00.157.325l2.164 1.25 3.213-1.524c.12.25.255.495.402.73a1.096 1.096 0 01.059.948l-2.606 5.256a.588.588 0 00.23.764l2.83 1.634a.589.589 0 00.778-.183l3.25-4.883a1.075 1.075 0 01.847-.425 8.787 8.787 0 002.117-.212.462.462 0 01.585.414l.43 4.265a.366.366 0 00.169.3l2.16 1.243 2.596-3.809a1.192 1.192 0 00.522-.822l.439-4.888a.992.992 0 01.563-.73 10.308 10.308 0 003.414-2.395.891.891 0 01.873-.234l1.733.61a.688.688 0 00.793-.292l3.228-5.592a.694.694 0 00-.139-.834l-1.481-1.272a.91.91 0 01-.241-.877 14.75 14.75 0 00.402-4.054 1.154 1.154 0 01.421-.866l4.02-2.826a1.176 1.176 0 00.446-.862l1.919-2.3.088-1.856zM90.512 84.702c-4.102 2.365-6.65.687-6.65-4.047 0-4.733 3.39-10.534 7.487-12.9 4.097-2.364 6.58-.646 6.58 4.088 0 4.733-3.327 10.498-7.417 12.866v-.007z" fill="#1D4153"/><path d="M103.444 58.413l.863-1.736a.595.595 0 00-.234-.768l-2.826-1.63a.588.588 0 00-.778.179l-3.25 4.887a.904.904 0 01-.216.208l3.637 2.099 2.804-3.239zM78.102 79.5a1.42 1.42 0 01-.31.33l-4.022 2.825a1.096 1.096 0 00-.266.303l2.452 1.415 5.326-3.03-3.18-1.843zm2.438-13.502a.69.69 0 00-.563.329l-3.231 5.592a.662.662 0 00-.073.41l2.785 1.608 4.423-5.984-3.341-1.955zm7.336-7.903l3.444 1.988 3.914-2.258v-1.576l-2.171-1.254a.366.366 0 00-.365.033l-4.387 2.537a1.18 1.18 0 00-.435.53z" fill="#435E6C"/><path d="M109.852 70v-5.062a.329.329 0 00-.143-.324.326.326 0 00-.354-.002l-3.912 1.766a.463.463 0 01-.65-.303 8.994 8.994 0 00-.874-1.938 1.095 1.095 0 01-.058-.947l2.606-5.256a.593.593 0 00-.23-.767l-2.83-1.634a.59.59 0 00-.778.182l-3.25 4.887a1.072 1.072 0 01-.851.42 8.99 8.99 0 00-2.113.217.464.464 0 01-.589-.413L95.4 56.53a.328.328 0 00-.53-.271l-4.387 2.537a1.188 1.188 0 00-.526.819l-.439 4.89a1.63 1.63 0 01-.457.914c-.87.806-1.686 1.67-2.441 2.584a.841.841 0 01-.863.242l-2.822-.984a.687.687 0 00-.79.293l-3.23 5.596a.69.69 0 00.142.834l2.263 1.948a.844.844 0 01.219.873 25.967 25.967 0 00-1.016 3.404c-.09.337-.288.636-.563.851l-4.021 2.826a1.188 1.188 0 00-.45.866v5.073a.33.33 0 00.501.322l3.911-1.762a.465.465 0 01.65.3c.212.68.505 1.332.874 1.941a1.097 1.097 0 01.059.947l-2.599 5.27a.588.588 0 00.23.765l2.83 1.634a.588.588 0 00.778-.183l3.242-4.88a1.095 1.095 0 01.848-.424 8.624 8.624 0 002.117-.216.468.468 0 01.588.413l.428 4.27a.328.328 0 00.53.274l4.386-2.559a1.166 1.166 0 00.523-.819l.442-4.89c.05-.345.211-.664.457-.91a26.47 26.47 0 002.438-2.585.84.84 0 01.863-.245l2.822.983a.688.688 0 00.793-.292l3.231-5.596a.683.683 0 00-.142-.83l-2.256-1.926a.841.841 0 01-.219-.87c.413-1.112.753-2.25 1.016-3.407.092-.337.289-.636.563-.852l4.021-2.825a1.192 1.192 0 00.439-.874zm-17.18 15.956c-4.101 2.364-7.424.445-7.424-4.288 0-4.734 3.323-10.49 7.424-12.856 4.101-2.365 7.413-.45 7.413 4.284s-3.316 10.484-7.413 12.86z" fill="#1D4153"/><path d="M109.698 64.598a.364.364 0 00-.347 0l-3.911 1.761a.465.465 0 01-.651-.3 8.5 8.5 0 00-.559-1.374l2.961-1.334a.362.362 0 01.34 0l2.167 1.247z" fill="#435E6C"/><defs><filter id="filter0_d_76_2557" x="0" y="0" width="182" height="182" filterUnits="userSpaceOnUse" color-interpolation-filters="sRGB"><feFlood flood-opacity="0" result="BackgroundImageFix"/><feColorMatrix in="SourceAlpha" values="0 0 0 0 0 0 0 0 0 0 0 0 0 0 0 0 0 0 127 0" result="hardAlpha"/><feOffset dy="5"/><feGaussianBlur stdDeviation="8"/><feComposite in2="hardAlpha" operator="out"/><feColorMatrix values="0 0 0 0 0.113725 0 0 0 0 0.254902 0 0 0 0 0.32549 0 0 0 0.1 0"/><feBlend in2="BackgroundImageFix" result="effect1_dropShadow_76_2557"/><feBlend in="SourceGraphic" in2="effect1_dropShadow_76_2557" result="shape"/></filter></defs></svg>