<svg width="182" height="182" fill="none" xmlns="http://www.w3.org/2000/svg"><g filter="url(#filter0_d_76_2430)"><circle cx="91" cy="86" r="75" fill="#fff"/></g><path d="M56.649 125.593c18.972 11.982 49.731 11.982 68.702 0 18.971-11.981 18.971-31.41 0-43.39C106.38 70.22 75.621 70.22 56.649 82.2c-18.971 11.979-18.971 31.409 0 43.393z" fill="#F1F7FF"/><path d="M92.361 41.958l-30.75 17.753a2.51 2.51 0 00-1.135 1.967v34.276a2.506 2.506 0 001.136 1.967l30.749 17.756a2.516 2.516 0 002.27 0l30.771-17.756a2.501 2.501 0 001.136-1.967V61.678a2.522 2.522 0 00-1.136-1.967L94.65 41.958a2.51 2.51 0 00-2.289 0z" fill="#435E6C"/><path d="M93.507 79.048v36.899c-.395.01-.785-.08-1.136-.263L61.62 97.931a2.513 2.513 0 01-1.136-1.966V61.678a2.54 2.54 0 011.02-1.893c-.508.364-.47.899.116 1.237l30.74 17.753c.352.188.747.282 1.146.273z" fill="#1D4153"/><path d="M125.402 59.711L94.65 41.958a2.51 2.51 0 00-2.27 0L61.63 59.711c-.627.362-.627.95 0 1.311l30.731 17.753a2.51 2.51 0 002.27 0l30.771-17.753c.616-.362.616-.949 0-1.31z" fill="#7C8D96"/><path d="M96.203 80.333l27.626-15.949c.312-.18.566-.034.566.328v30.681a1.266 1.266 0 01-.566.983l-27.626 15.936c-.312.181-.567.037-.567-.328V81.316a1.251 1.251 0 01.567-.983z" fill="#1D4153"/><path d="M96.16 81.316a.739.739 0 01.305-.524l27.403-15.823v30.419a.748.748 0 01-.304.524l-27.403 15.821V81.316z" fill="#435E6C"/><path d="M95.733 83.063l5.998-3.47a.4.4 0 01.393 0l.97.562-6.293 3.514-1.068-.606z" fill="#7C8D96"/><path d="M103.191 80.38v4.133a.757.757 0 01-.341.587l-6.052 3.496v-4.92l6.052-3.492c.186-.108.341-.021.341.196z" fill="#1D4153"/><path d="M95.733 83.063l1.065.614v4.922l-1.065-.617v-4.92z" fill="#435E6C"/><path d="M99.363 84.078c.293-.17.524-.034.524.307a1.183 1.183 0 01-.524.923c-.294.167-.525.031-.525-.31a1.172 1.172 0 01.525-.92zm2.132-1.23c.293-.17.524-.034.524.307a1.178 1.178 0 01-.524.923c-.297.168-.525.031-.525-.31a1.186 1.186 0 01.525-.92zm-5.861.272l-1.474.853a1.312 1.312 0 01-1.311 0l-1.078-.622a.39.39 0 00-.393 0l-.965.556 2.436 1.296a1.31 1.31 0 001.31 0l2.54-1.466-1.065-.616z" fill="#7C8D96"/><path d="M90.649 88.853l2.2 1.272a1.31 1.31 0 001.31 0l2.54-1.466v-4.922l-2.54 1.466a1.31 1.31 0 01-1.31 0l-2.2-1.27c-.186-.107-.341-.02-.341.197v4.133a.754.754 0 00.34.59z" fill="#435E6C"/><path d="M93.512 90.298c.229 0 .453-.06.65-.176l2.539-1.466v-4.92l-2.538 1.467a1.283 1.283 0 01-.65.175v4.92z" fill="#1D4153"/><path d="M95.733 103.981l5.998-3.461a.385.385 0 01.393 0l.97.561-6.293 3.514-1.068-.614z" fill="#7C8D96"/><path d="M103.191 101.291v4.132a.747.747 0 01-.341.59l-6.052 3.493v-4.919l6.052-3.49c.186-.111.341-.024.341.194z" fill="#1D4153"/><path d="M95.733 103.973l1.065.614v4.919l-1.065-.613v-4.92z" fill="#435E6C"/><path d="M99.363 104.985c.293-.17.524-.031.524.307a1.174 1.174 0 01-.524.923c-.294.171-.525.034-.525-.307a1.18 1.18 0 01.525-.923zm2.132-1.229c.293-.171.524-.032.524.306a1.174 1.174 0 01-.524.924c-.297.17-.525.034-.525-.307a1.179 1.179 0 01.525-.923zm-5.861.275l-1.474.852a1.312 1.312 0 01-1.311 0l-1.078-.621a.389.389 0 00-.393 0l-.965.556 2.436 1.295a1.312 1.312 0 001.31 0l2.54-1.466-1.065-.616z" fill="#7C8D96"/><path d="M90.649 109.763l2.2 1.269a1.302 1.302 0 001.31 0l2.54-1.465v-4.92l-2.54 1.466a1.312 1.312 0 01-1.31 0l-2.2-1.269c-.186-.11-.341-.021-.341.196v4.133a.767.767 0 00.34.59z" fill="#435E6C"/><path d="M93.512 111.208c.229-.001.453-.061.65-.176l2.539-1.465v-4.92l-2.538 1.466a1.338 1.338 0 01-.65.176v4.919zm20.803-27.175l.178-.31-1.083-.626h-.021c-.865-.482-2.05-.406-3.361.351-2.646 1.53-4.794 5.245-4.794 8.303 0 1.5.524 2.559 1.358 3.073l.032.018.031.019 1.083.626.181-.317a4.336 4.336 0 002.098-.653c2.649-1.529 4.794-5.244 4.794-8.302a4.389 4.389 0 00-.496-2.182z" fill="#1D4153"/><path d="M114.64 91.635c1.872-3.242 1.873-6.746.001-7.826-1.871-1.08-4.906.672-6.777 3.914-1.872 3.242-1.873 6.746-.001 7.827 1.871 1.08 4.905-.672 6.777-3.915z" fill="#1D4153"/><path d="M114.467 91.537c1.872-3.242 1.872-6.746.001-7.826-1.871-1.08-4.906.672-6.778 3.914-1.871 3.242-1.872 6.746-.001 7.827 1.872 1.08 4.906-.672 6.778-3.915z" fill="#435E6C"/><path d="M111.572 85.887c-.107.04-.173-.05-.147-.2l.221-1.274a.465.465 0 01.241-.34c.105-.04.173.05.147.199l-.221 1.271a.471.471 0 01-.241.344zm-1.807 1.377a.099.099 0 01-.08.005.098.098 0 01-.056-.058l-.357-.834a.444.444 0 01.108-.395c.102-.121.217-.137.262-.04l.357.834a.439.439 0 01-.108.393.28.28 0 01-.126.095zm-1.379 2.373a.157.157 0 01-.058 0l-.786-.076c-.095 0-.124-.142-.066-.296.058-.155.181-.263.262-.263l.787.077c.092 0 .123.141.066.296a.433.433 0 01-.205.262zm-1.358 3.176c-.084.031-.147-.014-.152-.118a.496.496 0 01.183-.388l.931-.711c.11-.084.207-.047.215.084a.498.498 0 01-.049.214.498.498 0 01-.134.174l-.934.71a.2.2 0 01-.06.035zm.907 2.129a.106.106 0 01-.105 0c-.071-.055-.06-.218.024-.362l.713-1.227c.084-.144.21-.215.28-.16.071.055.061.22-.023.364l-.711 1.225a.385.385 0 01-.178.16zm2.037.191c-.107.04-.173-.05-.146-.199l.22-1.272a.48.48 0 01.239-.343c.107-.04.173.05.146.199l-.22 1.275a.476.476 0 01-.239.34zm2.382-1.814a.1.1 0 01-.115-.02.1.1 0 01-.022-.035l-.356-.821a.439.439 0 01.107-.394c.102-.12.22-.139.262-.039l.354.831a.439.439 0 01-.107.396.326.326 0 01-.123.082zm1.819-3.131a.144.144 0 01-.057 0l-.787-.076c-.092 0-.121-.142-.063-.297.058-.154.178-.262.262-.262l.787.076c.094 0 .123.142.066.296a.447.447 0 01-.208.263zm-.369-2.541c-.082.031-.145-.016-.152-.121 0-.074.017-.147.049-.213a.493.493 0 01.134-.172l.934-.714c.11-.084.204-.044.215.087a.52.52 0 01-.184.385l-.936.713a.248.248 0 01-.06.035zm-.69-1.613a.105.105 0 01-.105 0c-.071-.055-.06-.218.024-.362l.71-1.227c.084-.144.21-.215.284-.16.073.055.06.22-.024.364l-.713 1.225a.39.39 0 01-.176.16z" fill="#3A80EF"/><path d="M113.405 86.737c-.456-.677-1.327-.813-2.326-.236-1.468.85-2.662 2.916-2.662 4.612 0 1.215.609 1.907 1.493 1.899l2.048.047 2.577-4.72-1.13-1.602z" fill="#1D4153"/><path d="M112.815 88.208a4.395 4.395 0 00-1.977 3.448c0 1.267.889 1.778 1.985 1.146a4.387 4.387 0 001.985-3.438c0-1.274-.889-1.788-1.993-1.156z" fill="#7C8D96"/><path d="M122.292 79.628a2.361 2.361 0 00-1.177-2.14l-3.551-2.048h-.016a1.066 1.066 0 00-1.049.11 3.332 3.332 0 00-1.505 2.622c0 .525.21.897.543 1.023h.021l3.409 1.08a1.898 1.898 0 011.324 1.715l.391 7.283a.614.614 0 001.036.41.617.617 0 00.194-.41l.38-9.645z" fill="#1D4153"/><path d="M90.035 112.32l-29.27-16.898-14.635 8.449 29.27 16.898 14.635-8.449z" fill="#3A80EF"/><path opacity=".15" d="M47.669 103.871l27.73 15.996 13.097-7.56-27.731-15.996-13.096 7.56zm.77 0l12.326-7.117 26.96 15.563-12.325 7.117-26.96-15.563z" fill="#435E6C"/><path opacity=".15" d="M68.63 112.47c-1.996 0-4.042-.459-5.62-1.372-1.537-.886-2.416-2.098-2.416-3.317 0-1.123.721-2.156 2.03-2.914 2.798-1.612 7.52-1.513 10.531.223 1.534.887 2.415 2.098 2.415 3.32 0 1.12-.72 2.156-2.03 2.911-1.308.755-3.099 1.149-4.91 1.149zm-1.094-8.489c-1.765 0-3.486.37-4.78 1.117-1.225.708-1.9 1.66-1.9 2.685 0 1.125.832 2.253 2.285 3.092 2.937 1.694 7.544 1.796 10.269.223 1.224-.708 1.898-1.662 1.898-2.685 0-1.128-.831-2.253-2.284-3.092-1.542-.891-3.543-1.34-5.488-1.34z" fill="#435E6C"/><path opacity=".1" d="M68.63 111.525c-1.897 0-3.772-.453-5.146-1.248-1.235-.713-1.943-1.623-1.943-2.496 0-.769.553-1.511 1.558-2.098 1.146-.661 2.722-1.025 4.437-1.025 1.895 0 3.77.456 5.145 1.248 1.235.713 1.943 1.623 1.943 2.499 0 .768-.554 1.51-1.558 2.098-1.146.658-2.732 1.022-4.437 1.022z" fill="#435E6C"/><path opacity=".1" d="M73.858 117.879l-8.045-4.675.645.084c.576.073 1.155.11 1.736.11a12.195 12.195 0 005.596-1.474c1.424-.821 2.86-2.292 2.86-3.723a3.463 3.463 0 00-.324-1.445l-.173-.375 8.81 5.116-.964.558c-.163.095-.263.21-.263.331a.419.419 0 00.263.33l.967.559-8.027 4.604-.836-.49a1.571 1.571 0 00-1.411 0l-.834.49z" fill="#435E6C"/><path d="M77.414 114.604a2.745 2.745 0 01-1.343-.328 1.047 1.047 0 01-.608-.849.905.905 0 01.524-.758 2.805 2.805 0 012.523.05 1.05 1.05 0 01.608.852.893.893 0 01-.524.758c-.364.19-.77.285-1.18.275z" fill="#3A80EF"/><path opacity=".1" d="M60.03 109.808l-8.792-5.066.965-.556a.346.346 0 00.254-.332.343.343 0 00-.254-.332l-.968-.558 8.014-4.563.834.482a1.573 1.573 0 001.408 0l.837-.482 8.042 4.628-.65-.084a13.843 13.843 0 00-1.739-.11c-1.906 0-4.182.575-5.666 1.432-1.852 1.07-2.79 2.216-2.79 3.409a5.01 5.01 0 00.338 1.76l.168.372z" fill="#435E6C"/><path d="M58.982 104.013a2.767 2.767 0 01-1.346-.328 1.056 1.056 0 01-.605-.852.897.897 0 01.524-.756 2.791 2.791 0 012.523.05 1.056 1.056 0 01.605.852.896.896 0 01-.524.756 2.4 2.4 0 01-1.177.278zm31.053 8.307v3.556L75.4 124.325v-3.556l14.635-8.449z" fill="#3A80EF"/><path opacity=".4" d="M90.035 112.32v3.556L75.4 124.325v-3.556l14.635-8.449z" fill="#fff"/><path d="M75.4 121.561l4.62-2.57-4.62 2.785v-.215zm14.635-7.552l-1.542.978 1.542-.8v-.178zm0 .847l-7.702 4.578 7.702-4.316v-.262zM75.4 122.408l7.702-4.308-7.702 4.589v-.281z" fill="#206AE0"/><path d="M75.4 124.325l-29.27-16.898v-3.556l29.27 16.898v3.556z" fill="#3A80EF"/><path opacity=".15" d="M75.4 124.325l-29.27-16.898v-3.556l29.27 16.898v3.556z" fill="#435E6C"/><g opacity=".3"><path d="M75.4 121.561l-1.542-.792 1.542 1.007v-.215z" fill="#435E6C" opacity=".5"/></g><g opacity=".3"><path d="M75.4 122.408l-7.746-4.329 7.746 4.61v-.281z" fill="#435E6C" opacity=".5"/></g><g opacity=".3"><path d="M46.13 105.544l5.391 3.218-5.391-3.008v-.21z" fill="#435E6C" opacity=".5"/></g><g opacity=".3"><path d="M46.13 106.438l3.08 1.88-3.08-1.68v-.2z" fill="#435E6C" opacity=".5"/></g><path d="M77.949 104.752l-15.144 8.746-4.62-2.667 15.143-8.748 4.62 2.669z" fill="#F8FAF9"/><path d="M58.184 110.831v3.87l4.62 2.667v-3.871l-4.62-2.666z" fill="#7C8D96"/><path d="M62.805 117.368l.27-.157-.27-.155v.312zm15.144-12.616v.59l-.512-.296.512-.294z" fill="#C0D0EB"/><path d="M63.075 117.208v-3.553l-.27-.158v3.556l.27.155z" fill="#435E6C" opacity=".3"/><path d="M63.075 113.655l14.635-8.452-.272-.157-14.633 8.452.27.157z" fill="#435E6C" opacity=".2"/><path d="M77.453 104.464l-15.149 8.745-.383-.223 15.144-8.743.388.221zm-3.238-1.867l-15.147 8.742-.383-.22 15.144-8.743.386.221z" fill="#7C8D96"/><path d="M62.304 113.209v3.871l-.383-.223v-3.871l.383.223zm-3.236-1.87v3.871l-.385-.223.002-3.868.383.22z" fill="#1D4153"/><path d="M90.035 108.13l-29.27-16.899-14.635 8.45 29.27 16.898 14.635-8.449z" fill="#3A80EF"/><path opacity=".5" d="M47.669 99.68l27.73 15.997 13.097-7.561L60.765 92.12l-13.096 7.56zm.77 0l12.326-7.114 26.96 15.564-12.325 7.117L48.44 99.68z" fill="#435E6C"/><path opacity=".15" d="M68.63 108.282c-1.996 0-4.042-.462-5.62-1.372-1.537-.886-2.416-2.098-2.416-3.32 0-1.119.721-2.155 2.03-2.91 2.798-1.616 7.52-1.516 10.531.222 1.534.887 2.415 2.098 2.415 3.32 0 1.12-.72 2.153-2.03 2.911-1.308.758-3.099 1.149-4.91 1.149zm-1.094-8.497c-1.765 0-3.486.37-4.78 1.12-1.225.705-1.9 1.66-1.9 2.683 0 1.127.832 2.255 2.285 3.091 2.937 1.697 7.544 1.797 10.269.223 1.224-.708 1.898-1.66 1.898-2.682 0-1.128-.831-2.255-2.284-3.095-1.542-.886-3.543-1.34-5.488-1.34z" fill="#435E6C"/><path opacity=".1" d="M68.63 107.338c-1.897 0-3.772-.457-5.146-1.249-1.235-.713-1.943-1.623-1.943-2.499 0-.768.553-1.51 1.558-2.098 1.146-.66 2.722-1.025 4.437-1.025 1.895 0 3.77.454 5.145 1.248 1.235.714 1.943 1.624 1.943 2.499 0 .769-.554 1.511-1.558 2.098-1.146.661-2.732 1.026-4.437 1.026z" fill="#435E6C"/><path opacity=".5" d="M73.858 113.684l-8.045-4.673.645.084c.576.073 1.155.11 1.736.11a12.195 12.195 0 005.596-1.474c1.424-.821 2.86-2.292 2.86-3.726a3.466 3.466 0 00-.324-1.443l-.173-.374 8.81 5.113-.964.559a.42.42 0 00-.263.33.416.416 0 00.263.333l.967.559-8.027 4.602-.836-.483a1.571 1.571 0 00-1.411 0l-.834.483z" fill="#435E6C"/><path d="M77.414 110.416a2.744 2.744 0 01-1.343-.327 1.06 1.06 0 01-.608-.853.899.899 0 01.524-.755 2.791 2.791 0 012.523.05 1.044 1.044 0 01.608.852.891.891 0 01-.524.755 2.39 2.39 0 01-1.18.278z" fill="#3A80EF"/><path opacity=".5" d="M60.03 105.62l-8.792-5.066.965-.559a.421.421 0 00.262-.33c0-.12-.089-.236-.262-.33l-.968-.562 8.014-4.563.834.486a1.592 1.592 0 001.408 0l.837-.483 8.042 4.631-.65-.084a13.641 13.641 0 00-1.739-.113c-1.906 0-4.182.577-5.666 1.435-1.852 1.07-2.79 2.216-2.79 3.409.006.602.12 1.198.338 1.759l.168.37z" fill="#435E6C"/><path d="M58.982 99.825a2.762 2.762 0 01-1.346-.328 1.049 1.049 0 01-.605-.852.898.898 0 01.524-.758 2.79 2.79 0 012.523.052 1.049 1.049 0 01.605.85.898.898 0 01-.524.758 2.394 2.394 0 01-1.177.278zm31.053 8.305v3.558L75.4 120.137v-3.558l14.635-8.449z" fill="#3A80EF"/><path opacity=".4" d="M90.035 108.13v3.558L75.4 120.137v-3.558l14.635-8.449z" fill="#fff"/><path d="M75.4 117.373l4.62-2.572-4.62 2.787v-.215zm14.635-7.552l-1.542.978 1.542-.8v-.178zm0 .847l-7.702 4.579 7.702-4.317v-.262zM75.4 118.22l7.702-4.308-7.702 4.586v-.278z" fill="#206AE0"/><path d="M75.4 120.137l-29.27-16.898V99.68l29.27 16.9v3.558z" fill="#3A80EF"/><path opacity=".15" d="M75.4 120.137l-29.27-16.898V99.68l29.27 16.9v3.558z" fill="#435E6C"/><g opacity=".3"><path d="M75.4 117.373l-1.542-.794 1.542 1.009v-.215z" fill="#435E6C" opacity=".5"/></g><g opacity=".3"><path d="M75.4 118.22l-7.746-4.329 7.746 4.607v-.278z" fill="#435E6C" opacity=".5"/></g><g opacity=".3"><path d="M46.13 101.356l5.391 3.218-5.391-3.008v-.21z" fill="#435E6C" opacity=".5"/></g><g opacity=".3"><path d="M46.13 102.25l3.08 1.878-3.08-1.678v-.2z" fill="#435E6C" opacity=".5"/></g><path d="M77.949 100.562l-15.144 8.745-4.62-2.667 15.143-8.745 4.62 2.667z" fill="#F8FAF9"/><path d="M58.184 106.64v3.871l4.62 2.667v-3.871l-4.62-2.667z" fill="#7C8D96"/><path d="M62.805 113.178l.27-.155-.27-.158v.313zm15.144-12.616v.592l-.512-.296.512-.296z" fill="#C0D0EB"/><path d="M63.075 113.02v-3.556l-.27-.157v3.558l.27.155z" fill="#435E6C" opacity=".3"/><path d="M63.075 109.464l14.635-8.449-.272-.157-14.633 8.449.27.157z" fill="#435E6C" opacity=".2"/><path d="M77.453 100.276l-15.149 8.743-.383-.221 15.144-8.745.388.223zm-3.238-1.867l-15.147 8.742-.383-.222 15.144-8.743.386.223z" fill="#7C8D96"/><path d="M62.304 109.019v3.873l-.383-.223v-3.871l.383.221zm-3.236-1.868v3.871l-.385-.223.002-3.87.383.222z" fill="#1D4153"/><defs><filter id="filter0_d_76_2430" x="0" y="0" width="182" height="182" filterUnits="userSpaceOnUse" color-interpolation-filters="sRGB"><feFlood flood-opacity="0" result="BackgroundImageFix"/><feColorMatrix in="SourceAlpha" values="0 0 0 0 0 0 0 0 0 0 0 0 0 0 0 0 0 0 127 0" result="hardAlpha"/><feOffset dy="5"/><feGaussianBlur stdDeviation="8"/><feComposite in2="hardAlpha" operator="out"/><feColorMatrix values="0 0 0 0 0.113725 0 0 0 0 0.254902 0 0 0 0 0.32549 0 0 0 0.1 0"/><feBlend in2="BackgroundImageFix" result="effect1_dropShadow_76_2430"/><feBlend in="SourceGraphic" in2="effect1_dropShadow_76_2430" result="shape"/></filter></defs></svg>