<svg width="1920" height="1467" fill="none" xmlns="http://www.w3.org/2000/svg"><path d="M2208.74 235.543c32.9 10.262 65.2 20.338 96.31 30.836L2140.09 1466.78c-19.54-2.58-38.42-7.51-56.39-15.2-82.28-35.25-150.96-111.77-219.54-188.98l-2.9-3.25c-67.58-76.09-135.25-152.29-215.88-189.36-81.79-37.61-173.09-37.22-268.57-28.44-26.11 2.4-52.54 5.43-79.18 8.48-70.77 8.11-143 16.38-214.74 13.51-93.119-3.74-168.374-45.34-242.421-86.275l-.05-.028c-4.371-2.416-8.738-4.83-13.104-7.234-78.315-43.117-156.377-82.918-253.798-73.277-48.662 4.817-99.401 15.946-150.598 28.529-15.368 3.777-30.775 7.685-46.18 11.593l-.152.038-.005.001c-35.878 9.101-71.745 18.198-107.07 25.641C168.413 983.83 71.948 991.533-7.207 947.013c-158.5-89.148-279.887-290.837-319.883-454.326l-.011-.045-15.597-34.578 38.411-279.514c29.516-30.555 61.966-61.604 95.885-89.03 37.103-30.001 75.945-55.654 114.611-71.588C-55.126 1.996-16.668-4.209 19.69 4.637c72.853 17.726 140.707 72.08 208.593 127.128l3.372 2.734c66.714 54.108 133.538 108.305 205.114 128.119 72.796 20.151 147.626 7.706 224.817-13.779 27.164-7.561 54.611-16.238 82.369-25.014l.006-.001.005-.001.003-.002c51.167-16.175 103.391-32.683 156.839-43.153 77.701-15.22 145.543 10.134 212.333 35.097 3.95 1.478 7.9 2.955 11.85 4.422 70.61 26.225 140.63 49.285 220.24 20.107 31.89-11.686 65.69-27.182 101.37-43.534 8.78-4.025 17.67-8.103 26.68-12.188 45.61-20.685 94.12-41.582 145.51-57.013 102.75-30.859 216.97-39.853 342.3 18.456 62.76 29.201 128.97 51.93 194.13 72.707 17.93 5.716 35.78 11.284 53.45 16.797l.07.023z" fill="#F7FAFF"/><circle cx="1967.5" cy="656.5" r="325.5" fill="#fff"/></svg>