<svg width="1920" height="1124" fill="none" xmlns="http://www.w3.org/2000/svg"><path d="M203.039 1115.79c-259.627 50.96-432.355-152.309-537.559-142.357 0 0-7.83-149.36 0-520.453 7.829-371.093 442.377-128.764 836.42-143.164 394.043-14.4 558.84-209.827 732.58-265.78 173.74-55.954 574.56-72 721.58 32.914 147.02 104.913 134.69 205.288 134.69 376.03 0 170.742-40.01 557.48-40.01 557.48-330.54 83.52-315.53-141.94-537.06-111.083-184.54 25.706-344.04 111.083-509.55 111.083-145.334 0-275.862-103.562-440.552-89.277-163.057 14.142-218.024 166.627-360.539 194.607z" fill="#F8FAF9"/></svg>