<svg width="1920" height="1323" fill="none" xmlns="http://www.w3.org/2000/svg"><path d="M2199.13 243.974c32.99 9.555 65.39 18.937 96.6 28.669L2151.45 1322.55c-19.54-2.59-38.46-7.24-56.51-14.29-82.69-32.29-152.5-100.56-222.23-169.43l-2.94-2.9c-68.71-67.87-137.52-135.84-218.58-169.713-82.24-34.365-173.32-35.565-268.43-29.482-26.02 1.664-52.33 3.873-78.85 6.098-70.48 5.915-142.4 11.951-214.02 8.215-92.965-4.849-168.748-42.605-243.315-79.755l-.051-.025c-4.402-2.193-8.799-4.384-13.196-6.566-78.862-39.136-157.415-75.36-254.447-68.551-48.468 3.4-98.901 12.302-149.766 22.472-15.268 3.052-30.573 6.219-45.876 9.385l-.151.031-.006.001c-35.64 7.374-71.27 14.746-106.387 20.675C176.191 865.687 80.081 870.81.357 830.43c-159.64-80.858-284.155-259.783-326.822-403.832l-.012-.04-16.145-30.586 33.595-244.472c28.93-26.296 60.78-52.976 94.157-76.455 36.509-25.682 74.828-47.52 113.134-60.84s76.57-18.112 112.991-9.74c72.984 16.777 141.599 65.59 210.258 115.012l3.411 2.456c67.474 48.578 135.059 97.236 206.803 115.822 72.968 18.903 147.414 9.254 224.062-8.282 26.973-6.171 54.21-13.317 81.755-20.543l.006-.001.005-.001.003-.001c50.775-13.32 102.598-26.914 155.744-35.192 77.264-12.033 145.368 11.348 212.428 34.369 3.97 1.363 7.94 2.725 11.91 4.078 70.89 24.193 141.13 45.599 220.06 21.357 31.62-9.709 65.08-22.726 100.4-36.463 8.69-3.382 17.49-6.807 26.41-10.237 45.16-17.369 93.2-34.874 144.21-47.538 101.99-25.324 215.79-31.28 341.81 21.973 63.12 26.67 129.55 47.722 194.92 67.044 17.98 5.316 35.88 10.5 53.6 15.634l.08.022z" fill="#F7FAFF"/></svg>