<svg width="1920" height="1699" fill="none" xmlns="http://www.w3.org/2000/svg"><path d="M312.43 236.894C268.891 105.968.695 12.094-104.497 0c0 0-552.674 794-327.174 1219.5s539.5 85 933.5 102.5 558.771 255 732.501 323c173.72 68 574.5 87.5 721.5-40s147.5-158.5 196-311S1993 341.5 1993 341.5c-22.5 187.579-201 455.352-439 543.5-175.5 65-403.27 25.423-534.5-98-105.848-99.558-192.825-285.141-357.497-302.5-163.04-17.187-299.561-97.217-349.573-247.606z" fill="#F8FAF9"/><circle cx="-148.498" cy="854.5" r="362.5" fill="#fff"/></svg>